<svg xmlns="http://www.w3.org/2000/svg" xmlns:svg="http://www.w3.org/2000/svg" id="svg2" width="1024" height="1024" version="1.1"><title id="title4145">ssh-copy</title><metadata id="metadata4"/><rect style="fill:#fff" id="rect3397" width="576" height="320" x="448" y="704"/><path id="rect4758" d="m 288,256 0,544 448,0 0,-355.2168 L 547.2168,256 288,256 Z" style="fill:#fff;fill-opacity:1"/><path id="rect4756" d="m 96,96 0,544 384,0 0,-384.66602 L 320.66602,96 96,96 Z" style="fill:#fff;fill-opacity:1"/><flowRoot id="flowRoot3336" transform="matrix(1.1647393,0,0,1.2118344,808.01972,-980.12128)" xml:space="preserve" style="font-style:normal;font-weight:400;font-size:180px;line-height:125%;font-family:sans-serif;letter-spacing:0;word-spacing:0;fill:#000;fill-opacity:1;stroke:none;stroke-width:1px;stroke-linecap:butt;stroke-linejoin:miter;stroke-opacity:1"><flowRegion id="flowRegion3338"><rect id="rect3340" width="2944" height="640" x="-256" y="1408" style="font-size:180px;fill:#000"/></flowRegion><flowPara id="flowPara3342" style="font-style:normal;font-variant:normal;font-weight:700;font-stretch:normal;font-size:240px;font-family:Consolas;-inkscape-font-specification:'Consolas Bold';fill:#000">SSH</flowPara></flowRoot><path style="font-style:normal;font-variant:normal;font-weight:400;font-size:180px;line-height:125%;font-family:'Segoe UI Symbol';text-align:start;letter-spacing:0;word-spacing:0;text-anchor:start;fill:#000;fill-opacity:1;stroke:none" id="path4726" d="M 64 64 L 64 685.51758 L 249.30273 685.51758 L 249.30273 832 L 448 832 L 448 758.57227 L 323.34766 758.57227 L 323.34766 283.53516 L 471.43945 283.53516 L 471.43945 502.69727 L 693.95508 502.69727 L 693.95508 704 L 768 704 L 768 429.64258 L 545.48438 210.10742 L 471.43945 210.10742 L 323.34766 64 L 64 64 z M 137.66602 137.05273 L 286.13672 137.05273 L 360.18164 210.10742 L 249.30273 210.10742 L 249.30273 612.46484 L 137.66602 612.46484 L 137.66602 137.05273 z M 545.48438 319.875 L 656.74219 429.64258 L 545.48438 429.64258 L 545.48438 319.875 z"/></svg>