<svg xmlns="http://www.w3.org/2000/svg" xmlns:svg="http://www.w3.org/2000/svg" id="svg2" width="1024" height="1024" version="1.1"><metadata id="metadata4"/><path style="fill:#fff;fill-opacity:1" id="rect4758" d="M 352 320 L 352 864 L 800 864 L 800 508.7832 L 611.2168 320 L 352 320 z"/><path style="fill:#fff;fill-opacity:1" id="rect4756" d="M 160 160 L 160 704 L 544 704 L 544 319.33398 L 384.66602 160 L 160 160 z"/><path id="path4726" d="M 832,493.64299 832,896 l -518.6969,0 0,-146.48183 -185.3031,0 L 128,128 l 259.34845,0 148.0906,146.10737 74.0453,0 L 832,493.64299 Z M 424.18124,274.10737 350.1359,201.05366 l -148.47032,0 0,475.41085 111.63752,0 0,-402.35714 110.87814,0 z m 333.77346,292.58928 -222.51565,0 0,-219.16099 -148.0906,0 0,475.03617 370.60625,0 0,-255.87518 z m -37.21255,-73.05366 -111.2578,-109.76781 0,109.76781 111.2578,0 z" style="font-style:normal;font-variant:normal;font-weight:400;font-size:180px;line-height:125%;font-family:'Segoe UI Symbol';text-align:start;letter-spacing:0;word-spacing:0;text-anchor:start;fill:#000;fill-opacity:1;stroke:none"/><path id="path4823" d="m 672.0008,672.00011 0,351.99959 351.9995,0 0,-351.99959 -351.9995,0 z" style="font-style:normal;font-weight:400;font-size:40px;line-height:125%;font-family:sans-serif;letter-spacing:0;word-spacing:0;fill:#fff;fill-opacity:1;fill-rule:evenodd;stroke:none;stroke-width:1px;stroke-linecap:butt;stroke-linejoin:miter;stroke-opacity:1"/><path id="path4825" d="m 704,703.99983 0,128.00024 128.00031,0 0,-128.00024 -128.00031,0 z" style="font-style:normal;font-weight:400;font-size:40px;line-height:125%;font-family:sans-serif;letter-spacing:0;word-spacing:0;fill:#f25022;fill-opacity:1;fill-rule:evenodd;stroke:none;stroke-width:1px;stroke-linecap:butt;stroke-linejoin:miter;stroke-opacity:1"/><path id="path4827" d="M 704,863.99977 704,992 l 128.00031,0 0,-128.00023 -128.00031,0 z" style="font-style:normal;font-weight:400;font-size:40px;line-height:125%;font-family:sans-serif;letter-spacing:0;word-spacing:0;fill:#00a4ef;fill-opacity:1;fill-rule:evenodd;stroke:none;stroke-width:1px;stroke-linecap:butt;stroke-linejoin:miter;stroke-opacity:1"/><path id="path4829" d="m 864.00051,703.99983 0,128.00024 127.9996,0 0,-128.00024 -127.9996,0 z" style="font-style:normal;font-weight:400;font-size:40px;line-height:125%;font-family:sans-serif;letter-spacing:0;word-spacing:0;fill:#7fba00;fill-opacity:1;fill-rule:evenodd;stroke:none;stroke-width:1px;stroke-linecap:butt;stroke-linejoin:miter;stroke-opacity:1"/><path id="path4831" d="m 864.00051,863.99977 0,128.00023 127.9996,0 0,-128.00023 -127.9996,0 z" style="font-style:normal;font-weight:400;font-size:40px;line-height:125%;font-family:sans-serif;letter-spacing:0;word-spacing:0;fill:#ffb900;fill-opacity:1;fill-rule:evenodd;stroke:none;stroke-width:1px;stroke-linecap:butt;stroke-linejoin:miter;stroke-opacity:1"/></svg>