<svg xmlns="http://www.w3.org/2000/svg" xmlns:svg="http://www.w3.org/2000/svg" id="svg3336" width="1024" height="1024" version="1.1"><metadata id="metadata3338"/><path style="fill:#fff;fill-opacity:1;stroke:none" id="rect4135" d="m 160,32 0,832 640,0 0,-671.50977 L 640.75586,32 160,32 Z"/><path style="fill:#424242;fill-opacity:1;stroke-width:64;stroke-miterlimit:4;stroke-dasharray:none" id="rect3340" d="M 239.57079,64 C 213.21624,64 192,85.21656 192,111.57152 l 0,672.86879 c 0,26.35494 21.21624,47.5715 47.57079,47.5715 0.144,0 0.28549,-0.009 0.42918,-0.0105 l 0,0.0105 480.00003,0 c 26.592,0 48,-21.40833 48,-48.00074 L 768,212.61946 619.38285,64 l -379.38288,0 0,0.0103 C 239.85628,64.00932 239.71479,64 239.57079,64 Z m 0.42918,48.00073 47.14309,0 312.85694,0 0,96.00147 c 0,13.29621 10.704,24.00038 24,24.00038 l 96,0 0,552.00849 -480.00003,0 0,-672.01034 z"/><rect style="fill:#424242;fill-opacity:1;stroke-width:64;stroke-miterlimit:4;stroke-dasharray:none" id="rect3339" width="320" height="64" x="320" y="288" ry="32"/><rect id="rect3341" width="320" height="64" x="320" y="448" ry="32" style="fill:#424242;fill-opacity:1;stroke-width:64;stroke-miterlimit:4;stroke-dasharray:none"/><rect style="fill:#fff;fill-opacity:1" id="rect4722" width="448" height="128" x="576" y="896"/><rect id="rect8" width="384" height="64" x="608" y="928" style="fill:#424242;fill-opacity:1"/><rect id="rect4724" width="288" height="192" x="640" y="-896" transform="matrix(0,1,-1,0,0,0)" style="fill:#fff;fill-opacity:1"/><path style="fill:#fff;fill-opacity:1" id="rect4726" d="M 800 416 L 640 576 L 512 704 L 704 704 L 800 656 L 896 704 L 1088 704 L 960 576 L 800 416 z"/><path id="polygon6" d="m 736,864 128,0 0,-192 128,0 -192,-192 -192,192 128,0 z" style="fill:#424242;fill-opacity:1"/><circle style="fill:#424242;fill-opacity:1;stroke:#fff;stroke-width:48;stroke-linecap:round;stroke-miterlimit:4;stroke-dasharray:none;stroke-opacity:1" id="path4156" cx="224" cy="736" r="188.632"/></svg>