<svg xmlns="http://www.w3.org/2000/svg" xmlns:svg="http://www.w3.org/2000/svg" id="svg3336" width="1024" height="1024" version="1.1"><metadata id="metadata3338"/><path style="fill:#fff;fill-opacity:1;stroke:none;stroke-width:34.62200165;stroke-linecap:round;stroke-miterlimit:4;stroke-dasharray:none;stroke-opacity:1" id="rect4148" d="M 288,64 288,344.88867 64,768 128,849.67773 544,846.97461 430.89844,480 608,480 512,64 Z"/><path style="color:#000;overflow:visible;fill:#69207a;fill-opacity:1;enable-background:accumulate" id="path8" d="m 192,0 0,64 64,0 0,224 L 0,773.81836 83.199219,896 736,896 736,736 560,736 688,608 725.08203,570.91797 576,288 l 0,-224 64,0 0,-64 z m 128,64 192,0 0,224 70.40039,160 L 384,448 192,832 128,832 83.199219,773.81836 320,288 Z"/><rect id="rect8" width="384" height="64" x="640" y="960" style="fill:#424242;fill-opacity:1"/><path id="polygon6" d="m 768,896 128,0 0,-192 128,0 -192,-192 -192,192 128,0 z" style="fill:#424242;fill-opacity:1"/></svg>