<svg xmlns="http://www.w3.org/2000/svg" xmlns:svg="http://www.w3.org/2000/svg" id="svg2" width="1024" height="1024" version="1.1" style="fill:#000"><metadata id="metadata20"/><rect style="fill:#424242;fill-opacity:1;stroke:none;stroke-width:64;stroke-miterlimit:4;stroke-dasharray:none;stroke-opacity:1" id="rect4185" width="1024" height="1024" x="0" y="0"/><path style="fill-opacity:1;stroke:none;stroke-width:64;stroke-miterlimit:4;stroke-dasharray:none;stroke-opacity:1;fill:#fff" id="rect4156" d="M 256 224 L 256 352 L 128 352 L 128 448 L 256 448 L 256 576 L 128 576 L 128 672 L 256 672 L 256 800 L 352 800 L 352 672 L 480 672 L 480 800 L 576 800 L 576 672 L 704 672 L 704 576 L 576 576 L 576 448 L 704 448 L 704 352 L 576 352 L 576 224 L 480 224 L 480 352 L 352 352 L 352 224 L 256 224 z M 352 448 L 480 448 L 480 576 L 352 576 L 352 448 z"/><rect id="rect4164" width="96" height="416" x="800" y="224" style="fill-opacity:1;stroke:none;stroke-width:64;stroke-miterlimit:4;stroke-dasharray:none;stroke-opacity:1;fill:#fff"/><rect style="fill-opacity:1;stroke:none;stroke-width:64;stroke-miterlimit:4;stroke-dasharray:none;stroke-opacity:1;fill:#fff" id="rect4166" width="96" height="96" x="800" y="704"/></svg>