<svg xmlns="http://www.w3.org/2000/svg" xmlns:svg="http://www.w3.org/2000/svg" id="svg2" width="1024" height="1024" version="1.1" viewBox="0 0 1024 1024"><metadata id="metadata7"/><g id="layer1" transform="translate(0,-28.362251)"><g id="g4210" transform="matrix(1.0168117,0,0,1.0168902,-9.3127767,-10.010792)"><path style="fill:#396337;fill-opacity:1;fill-rule:evenodd;stroke:none" id="path4195" d="m 661.93039,541.47012 c 0,-82.19444 -64.41697,-146.60225 -146.60072,-146.60225 -82.18833,0 -148.82405,64.40781 -148.82405,146.60225 0,79.96347 66.63572,146.60225 148.82405,146.60225 82.18375,0 146.60072,-66.63878 146.60072,-146.60225 z"/><path style="fill:#92b32c;fill-opacity:1;fill-rule:evenodd;stroke:none" id="path4197" d="M 262.10691,217.16957 C 82.186804,357.10947 51.089218,614.77124 191.02759,792.46955 328.74416,970.16786 588.6308,1003.4796 768.55396,863.55498 850.73771,799.1319 906.269,705.84373 921.8155,603.66224 l -135.49477,0 -117.7234,202.13201 -306.53378,0 L 208.79742,541.47012 328.74416,332.67576 262.10691,217.16957 Z"/><path style="fill:#396337;fill-opacity:1;fill-rule:evenodd;stroke:none" id="path4199" d="M 921.8155,479.27801 C 888.49764,257.14366 677.48148,101.66338 453.1345,137.20609 c -28.87578,4.43138 -55.53129,11.15485 -82.1868,19.98705 l 68.8621,119.95285 228.78753,0 117.7234,202.13202 135.49477,0 z"/></g></g></svg>