<svg xmlns="http://www.w3.org/2000/svg" xmlns:svg="http://www.w3.org/2000/svg" xmlns:xlink="http://www.w3.org/1999/xlink" id="svg3336" width="1024" height="1024" version="1.1"><defs id="defs3344"><radialGradient id="radialGradient3030" cx="475.277" cy="438.189" r="147.987" fx="475.277" fy="438.189" gradientTransform="matrix(4.3918917,0.36513861,-0.24186494,3.0954333,-1473.8259,-1006.558)" gradientUnits="userSpaceOnUse" xlink:href="#linearGradient3808"/><linearGradient id="linearGradient3808"><stop style="stop-color:#0663b4;stop-opacity:1" id="stop3810" offset="0"/><stop style="stop-color:#16adff;stop-opacity:.68468469" id="stop3812" offset="1"/></linearGradient><clipPath id="clipPath3939" clipPathUnits="userSpaceOnUse"><rect style="fill:url(#radialGradient3943);fill-opacity:1;stroke:none" id="rect3941" width="192.207" height="190.238" x="273.941" y="774.743" ry="61.519"/></clipPath><linearGradient id="linearGradient4023" x1="286.883" x2="286.883" y1="680.626" y2="623.047" gradientTransform="matrix(2.4638743,0,0,2.5415333,-626.13333,-1545.3523)" gradientUnits="userSpaceOnUse" xlink:href="#linearGradient3782"/><linearGradient id="linearGradient3782"><stop style="stop-color:#047fc7;stop-opacity:1" id="stop3784" offset="0"/><stop style="stop-color:#11abe8;stop-opacity:1" id="stop3786" offset="1"/></linearGradient></defs><metadata id="metadata3338"/><g id="g4782" transform="translate(8.8888997,-15.037177)"><rect style="fill:#c7ebf1;fill-opacity:1;stroke:none" id="rect3796-2" width="759.111" height="783.037" x="128" y="128" ry="254.166"/><rect id="rect3798" width="729.244" height="744.526" x="142.933" y="151.106" ry="240.762" style="opacity:.82300882;fill:url(#radialGradient3030);fill-opacity:1;stroke:none"/><rect style="fill:#016fd2;fill-opacity:1;stroke:none;filter:url(#filter3917)" id="rect3887" width="621.673" height="641.268" x="184.309" y="213.831" ry="200.924"/><circle style="opacity:.17256637;fill:#5fffe6;fill-opacity:1;stroke:none" id="path3828" cx="287.388" cy="660.928" r="246.982" clip-path="url(#clipPath3939)" transform="matrix(3.7940641,0,0,3.9136494,-896.41446,-2880.9676)"/><ellipse style="fill:#fff;fill-opacity:1;stroke:none" id="path3832" cx="615.822" cy="656.871" rx="159.289" ry="164.31"/><ellipse style="fill:#fff;fill-opacity:1;stroke:none" id="path3834" cx="322.133" cy="356.493" rx="92.089" ry="94.991"/><ellipse style="fill:#cbedf2;fill-opacity:.9254902;stroke:none" id="path3010-2" cx="78.222" cy="104.894" rx="87.111" ry="89.857"/><ellipse style="fill:url(#linearGradient4023);fill-opacity:1;stroke:none" id="path3012" cx="78.222" cy="104.894" rx="67.2" ry="69.318"/></g><rect style="fill:#fff;fill-opacity:1;stroke:none;stroke-width:48;stroke-linecap:round;stroke-miterlimit:4;stroke-dasharray:none;stroke-opacity:1" id="rect4804" width="393.331" height="336.381" x="337.268" y="800.072" transform="matrix(-0.22894083,0.97344034,0.96899263,0.24708962,0,0)"/><path style="fill:#fff;fill-opacity:1;stroke:none;stroke-width:48;stroke-linecap:round;stroke-miterlimit:4;stroke-dasharray:none;stroke-opacity:1" id="rect4798" d="M 672 572.89453 L 480 634.79297 L 480 927.83398 L 672 927.83398 L 672 572.89453 z"/><path id="path4944" d="m 768,576 -256,68.92507 0,310.1531 L 768,1024 1024,955.07817 1024,644.92507 768,576 Z m -221.9328,353.73284 -0.32,-233.11559 205.0656,55.21048 0,233.0639 -204.864,-55.15556 z m -0.32,-267.57812 85.46881,-23.00948 221.99999,59.84016 -85.3344,22.97394 -222.1344,-59.80462 z m 444.0672,267.57812 -204.864,55.15556 0,-233.0639 68.2656,-18.37657 0,83.9998 68.2656,-18.3798 0,-83.9998 68.5344,-18.45088 -0.32,233.11882 z m -68.3328,-249.12725 0,0 -222.00959,-59.77231 68.40959,-18.41533 222.1344,59.80461 -68.5344,18.45088 z" style="fill:#424242;fill-opacity:1"/></svg>