<svg xmlns="http://www.w3.org/2000/svg" xmlns:svg="http://www.w3.org/2000/svg" id="svg2" width="1024" height="1024" version="1.1" viewBox="0 0 1024 1024"><metadata id="metadata7"/><g id="layer1" transform="translate(0,-28.362114)"><g style="font-style:normal;font-weight:400;font-size:40px;line-height:125%;font-family:sans-serif;letter-spacing:0;word-spacing:0;fill:#000;fill-opacity:1;stroke:none;stroke-width:1px;stroke-linecap:butt;stroke-linejoin:miter;stroke-opacity:1" id="text4138" transform="matrix(2.4283836,0,0,2.4600599,-357.88541,-943.61331)"><rect style="fill:#fff;fill-opacity:1;stroke:none;stroke-width:64;stroke-miterlimit:4;stroke-dasharray:none;stroke-opacity:1" id="rect4867" width="421.68" height="312.188" x="147.376" y="447.134"/><rect style="fill-opacity:1;stroke:none;stroke-width:64;stroke-miterlimit:4;stroke-dasharray:none;stroke-opacity:1" id="rect4157" width="421.68" height="52.031" x="147.376" y="447.134"/><rect id="rect4159" width="421.68" height="247.148" x="147.376" y="512.173" style="fill-opacity:1;stroke:none;stroke-width:64;stroke-miterlimit:4;stroke-dasharray:none;stroke-opacity:1"/><rect id="rect4161" width="26.355" height="26.016" x="529.523" y="460.141" style="fill-opacity:1;stroke:none;stroke-width:64;stroke-miterlimit:4;stroke-dasharray:none;stroke-opacity:1;fill:#fff"/><rect style="fill:#fff;fill-opacity:1;stroke:none;stroke-width:64;stroke-miterlimit:4;stroke-dasharray:none;stroke-opacity:1" id="rect4163" width="26.355" height="26.016" x="489.991" y="460.141"/><rect id="rect4165" width="26.355" height="26.016" x="450.458" y="460.141" style="fill:#fff;fill-opacity:1;stroke:none;stroke-width:64;stroke-miterlimit:4;stroke-dasharray:none;stroke-opacity:1"/><g style="font-style:normal;font-variant:normal;font-weight:400;font-size:16.91569519px;line-height:125%;font-family:'Segoe UI Symbol';text-align:start;letter-spacing:0;word-spacing:0;text-anchor:start;fill:#fff;fill-opacity:1;stroke:none" id="text4069" transform="matrix(11.525147,0,0,11.525457,14.031257,-11129.75)"><path style="font-style:normal;font-variant:normal;font-weight:400;font-size:16.91569519px;font-family:'Segoe UI Symbol';fill:#fff;fill-opacity:1" id="path4093" d="m 28.958753,1020.3906 -0.256049,1.3629 1.833635,1.3711 -1.362836,2.3044 -2.048385,-0.9416 -1.156347,0.9416 0.21475,2.0484 -2.519183,0.6855 -0.685548,-1.8418 -1.577587,-0.2148 -1.362837,1.6271 -2.304433,-1.4123 0.941597,-1.8337 -0.941597,-1.1068 -2.048385,0.2148 -0.685548,-2.734 2.048385,-0.6855 0,-1.4041 -1.618885,-1.3711 1.404135,-2.2632 2.048385,0.9003 0.900298,-0.9003 -0.21475,-2.0897 2.519183,-0.6855 0.892039,1.8419 1.412395,0.256 1.577586,-1.6271 2.048385,1.3711 -0.677288,1.8336 0.677288,1.1481 2.304433,-0.2065 0.685549,2.5109 -2.048385,0.9003 z m -9.762867,-0.099 q 0,0.7682 0.289086,1.4455 0.289087,0.669 0.792923,1.1728 0.503837,0.5039 1.172866,0.793 0.677289,0.289 1.445433,0.289 0.768144,0 1.445433,-0.289 0.677288,-0.2891 1.172865,-0.793 0.503837,-0.5038 0.792924,-1.1728 0.297346,-0.6773 0.297346,-1.4455 0,-0.7681 -0.297346,-1.4454 -0.289087,-0.6773 -0.792924,-1.1729 -0.495577,-0.5038 -1.172865,-0.7929 -0.677289,-0.2973 -1.445433,-0.2973 -0.768144,0 -1.445433,0.2973 -0.669029,0.2891 -1.172866,0.7929 -0.503836,0.4956 -0.792923,1.1729 -0.289086,0.6773 -0.289086,1.4454 z"/></g><path id="path4823" d="m 424.10326,668.26642 0,143.08578 144.95219,0 0,-143.08578 -144.95219,0 z" style="fill:#fff;fill-opacity:1;fill-rule:evenodd;stroke:none"/><path id="path4825" d="m 437.28042,681.27412 0,52.03135 52.71007,0 0,-52.03135 -52.71007,0 z" style="fill:#f25022;fill-opacity:1;fill-rule:evenodd;stroke:none"/><path id="path4827" d="m 437.28042,746.31316 0,52.03135 52.71007,0 0,-52.03135 -52.71007,0 z" style="fill:#00a4ef;fill-opacity:1;fill-rule:evenodd;stroke:none"/><path id="path4829" d="m 503.16808,681.27412 0,52.03135 52.70978,0 0,-52.03135 -52.70978,0 z" style="fill:#7fba00;fill-opacity:1;fill-rule:evenodd;stroke:none"/><path id="path4831" d="m 503.16808,746.31316 0,52.03135 52.70978,0 0,-52.03135 -52.70978,0 z" style="fill:#ffb900;fill-opacity:1;fill-rule:evenodd;stroke:none"/></g></g></svg>