<svg xmlns="http://www.w3.org/2000/svg" xmlns:svg="http://www.w3.org/2000/svg" id="svg2" width="1024" height="1024" class="st4" version="1.1" viewBox="0 0 819.199 819.199" xml:space="preserve" style="font-size:12px;overflow:visible;color-interpolation-filters:sRGB;fill:none;fill-rule:evenodd;stroke-linecap:square;stroke-miterlimit:3"><metadata id="metadata40"/><rect style="fill:#fff;fill-opacity:1;stroke:none" id="rect4200" width="819.199" height="819.199" x="0" y="0"/><style id="style4" type="text/css">.st2{fill:#fff;stroke:none;stroke-linecap:butt;stroke-width:.75}.st3{stroke:#00bcf2;stroke-linecap:round;stroke-linejoin:round;stroke-width:1}.st4{fill:none;fill-rule:evenodd;font-size:12px;overflow:visible;stroke-linecap:square;stroke-miterlimit:3}</style><g id="group1397-6" transform="matrix(37.925882,0,0,37.925878,271.58457,-90.421271)" style="stroke:#fff;stroke-opacity:1"><title id="title24">Sheet.1397</title><g id="g4152" transform="matrix(1.2251788,0,0,1.1842106,0.78549406,-8.4681376)"><g style="font-size:12px;overflow:visible;color-interpolation-filters:sRGB;fill:#00bcf2;fill-opacity:1;fill-rule:evenodd;stroke-linecap:square;stroke-miterlimit:3" id="shape1396-4" transform="translate(-6.84,1.6341602)"><title id="title19">Sheet.1396</title><path style="fill:#00bcf2;fill-opacity:1;stroke:none;stroke-width:.75;stroke-linecap:butt" id="path21" d="M 3.64,22.32 C 2.03,22.13 0.69,20.8 0.41,19.13 0,16.68 1.9,14.44 4.28,14.58 c 0.32,0.02 0.75,0.11 0.95,0.19 0.04,0.02 0.09,-0.06 0.2,-0.35 0.28,-0.7 0.68,-1.32 1.22,-1.87 0.75,-0.77 1.64,-1.27 2.72,-1.52 0.29,-0.07 0.44,-0.08 1.11,-0.08 l 0.78,0 0.47,0.13 c 0.79,0.22 1.45,0.55 2.05,1.03 1.1,0.89 1.85,2.21 2.07,3.67 0.08,0.58 0.03,1.68 -0.11,2.17 l -0.03,0.11 0.32,0.02 c 0.4,0.02 0.75,0.14 1.07,0.37 0.31,0.22 0.51,0.47 0.68,0.83 0.17,0.36 0.22,0.65 0.2,1.07 -0.03,0.42 -0.12,0.71 -0.35,1.06 -0.26,0.4 -0.63,0.69 -1.13,0.87 -0.18,0.06 -0.44,0.06 -6.4,0.07 -3.41,0 -6.32,-0.01 -6.46,-0.03 l 0,0 z" class="st2"/></g><g style="stroke:#fff;stroke-opacity:1" id="shape1398-7" transform="translate(0,-0.138211)"><title id="title27">Sheet.1398</title><path style="stroke:#fff;stroke-width:1;stroke-linecap:round;stroke-linejoin:round;stroke-opacity:1" id="path29" d="M 1.8,15.1 5.16,18.76 0,22.35" class="st3"/></g><g style="stroke:#fff;stroke-opacity:1" id="shape1399-10" transform="translate(3.14588,0)"><title id="title32">Sheet.1399</title><path style="stroke:#fff;stroke-width:1;stroke-linecap:round;stroke-linejoin:round;stroke-opacity:1" id="path34" d="m 0,22.35 2.61,0" class="st3"/></g></g></g></svg>