<svg xmlns="http://www.w3.org/2000/svg" xmlns:svg="http://www.w3.org/2000/svg" id="svg3336" width="1024" height="1024" version="1.1"><metadata id="metadata3338"/><circle style="fill:#69207a;fill-opacity:1" id="path5854" cx="672" cy="512" r="352"/><ellipse id="circle5856" cx="144" cy="880" rx="144" ry="144" style="fill:#69207a;fill-opacity:1"/><circle style="fill:#69207a;fill-opacity:1" id="circle5858" cx="144" cy="144" r="144"/><path style="color:#000;font-style:normal;font-variant:normal;font-weight:400;font-stretch:normal;font-size:medium;line-height:normal;font-family:sans-serif;text-indent:0;text-align:start;text-decoration:none;text-decoration-line:none;text-decoration-style:solid;text-decoration-color:#000;letter-spacing:normal;word-spacing:normal;text-transform:none;direction:ltr;block-progression:tb;writing-mode:lr-tb;baseline-shift:baseline;text-anchor:start;white-space:normal;clip-rule:nonzero;display:inline;overflow:visible;visibility:visible;opacity:1;isolation:auto;mix-blend-mode:normal;color-interpolation:sRGB;color-interpolation-filters:linearRGB;solid-color:#000;solid-opacity:1;fill:#69207a;fill-opacity:1;fill-rule:evenodd;stroke:none;stroke-width:64;stroke-linecap:butt;stroke-linejoin:miter;stroke-miterlimit:4;stroke-dasharray:none;stroke-dashoffset:0;stroke-opacity:1;color-rendering:auto;image-rendering:auto;shape-rendering:auto;text-rendering:auto;enable-background:accumulate" id="path5875" d="M 151.07291,92.109363 104.92707,163.89061 646.42967,511.99998 104.92707,860.10934 151.07291,931.8906 804.23435,511.99998 151.07291,92.109363 Z"/><path id="path8" d="m 576,288 0,32 32,0 0,128 -128,224 64,64 256,0 64,-64 -128,-224 0,-128 32,0 0,-32 z m 64,32 64,0 0,128 32,64 -64,0 -96,192 -32,-64 96,-192 z" overflow="visible" style="color:#000;overflow:visible;fill:#fff;fill-opacity:1;enable-background:accumulate"/></svg>