<svg xmlns="http://www.w3.org/2000/svg" xmlns:svg="http://www.w3.org/2000/svg" id="svg2" width="1024" height="1024" version="1.1" viewBox="0 0 1024 1024"><metadata id="metadata18"/><path style="fill-opacity:1;stroke-width:64;stroke-linecap:round;stroke-miterlimit:4;stroke-dasharray:none" id="rect4169" d="M 0 0 L 0 1024 L 1024 1024 L 1024 0 L 0 0 z"/><path style="color:#000;font-style:normal;font-variant:normal;font-weight:400;font-stretch:normal;font-size:medium;line-height:normal;font-family:sans-serif;text-indent:0;text-align:start;text-decoration:none;text-decoration-line:none;text-decoration-style:solid;text-decoration-color:#000;letter-spacing:normal;word-spacing:normal;text-transform:none;direction:ltr;block-progression:tb;writing-mode:lr-tb;baseline-shift:baseline;text-anchor:start;white-space:normal;clip-rule:nonzero;display:inline;overflow:visible;visibility:visible;opacity:1;isolation:auto;mix-blend-mode:normal;color-interpolation:sRGB;color-interpolation-filters:linearRGB;solid-color:#000;solid-opacity:1;fill:#fff;fill-opacity:1;fill-rule:evenodd;color-rendering:auto;image-rendering:auto;shape-rendering:auto;text-rendering:auto;enable-background:accumulate" id="path4153" d="m 177.88673,110.0678 -49.86087,46.90364 a 35.311497,33.217188 0 0 0 1.22837,1.20416 L 316.13602,333.97354 128,510.95131 178.08714,558.0678 a 35.311497,33.217188 0 0 0 4.68934,-4.70314 L 416,333.97354 179.1862,111.20507 a 35.311497,33.217188 0 0 0 -1.29947,-1.13727 z"/><rect style="fill:#fff;fill-opacity:1" id="rect4167" width="384" height="64" x="416" y="558.068"/><flowRoot id="flowRoot3336" transform="matrix(1.345156,0,0,1.345156,594.21215,-1225.5663)" xml:space="preserve" style="font-style:normal;font-weight:400;font-size:180px;line-height:125%;font-family:sans-serif;letter-spacing:0;word-spacing:0;fill:#fff;fill-opacity:1;stroke:none;stroke-width:1px;stroke-linecap:butt;stroke-linejoin:miter;stroke-opacity:1"><flowRegion id="flowRegion3338"><rect id="rect3340" width="2944" height="640" x="-256" y="1408" style="font-size:180px;fill:#fff"/></flowRegion><flowPara id="flowPara3342" style="font-style:normal;font-variant:normal;font-weight:700;font-stretch:normal;font-size:240px;font-family:Consolas;-inkscape-font-specification:'Consolas Bold';fill:#fff">SSH</flowPara></flowRoot></svg>