<svg xmlns="http://www.w3.org/2000/svg" xmlns:svg="http://www.w3.org/2000/svg" id="svg2" width="1024" height="1024" version="1.1" viewBox="0 0 1024 1024"><metadata id="metadata7"/><g id="layer1" transform="translate(0,-28.362251)"><path id="path4220" d="m 298.99553,92.362251 c -27.48371,0 -52.22018,16.449389 -65.96204,41.236909 L 18.654486,501.87638 c -13.7456383,24.74971 -13.7456383,54.98255 0,79.71336 L 233.03349,949.867 c 13.74564,24.7497 38.47833,38.4953 65.96204,38.4953 l 426.0089,0 c 27.4856,0 54.96743,-13.8024 68.71306,-38.4953 L 1005.3455,581.58974 c 13.7456,-24.73081 13.7456,-54.96365 0,-79.71336 L 793.71749,133.59916 C 779.97186,108.84945 752.49003,92.362251 725.00443,92.362251 l -426.0089,0 z m 5.50204,217.131919 c 0,0 0,0 0,0 l 74.20943,0 c 2.74156,0 5.50204,2.64703 8.2436,5.48313 l 123.68238,222.61505 c 0,0 2.74157,0 2.74157,2.64703 0,-2.64703 0,-2.64703 0,-2.64703 L 637.05314,314.9773 c 2.74157,-2.64703 5.50204,-5.48313 8.24361,-5.48313 l 74.20753,0 c 5.50204,0 10.98517,8.31923 8.2436,13.80236 L 606.81841,540.42845 727.74978,757.54146 c 2.74156,8.31923 -2.74157,16.44939 -8.24361,16.44939 l -74.20753,0 c -2.74157,0 -5.50204,-2.64703 -8.2436,-5.48313 L 513.37644,545.89267 c 0,0 0,-2.64702 0,-2.64702 0,0 -2.74157,2.64702 -2.74157,2.64702 L 386.95249,768.50772 c -2.74156,2.64703 -5.50203,5.48313 -8.2436,5.48313 l -74.20943,0 c -5.50203,0 -10.98516,-8.31923 -8.2436,-16.44939 L 417.18722,540.42845 296.25586,323.29653 c -2.74156,-5.48313 0,-10.96626 8.2436,-13.80236 z" style="fill:#3498db;fill-opacity:1;fill-rule:evenodd;stroke:none"/><path style="color:#000;font-style:normal;font-variant:normal;font-weight:400;font-stretch:normal;font-size:medium;line-height:normal;font-family:sans-serif;text-indent:0;text-align:start;text-decoration:none;text-decoration-line:none;text-decoration-style:solid;text-decoration-color:#000;letter-spacing:normal;word-spacing:normal;text-transform:none;direction:ltr;block-progression:tb;writing-mode:lr-tb;baseline-shift:baseline;text-anchor:start;white-space:normal;clip-rule:nonzero;display:inline;overflow:visible;visibility:visible;opacity:1;isolation:auto;mix-blend-mode:normal;color-interpolation:sRGB;color-interpolation-filters:linearRGB;solid-color:#000;solid-opacity:1;fill:#fff;fill-opacity:1;fill-rule:nonzero;stroke:none;stroke-width:48;stroke-linecap:round;stroke-linejoin:round;stroke-miterlimit:4;stroke-dasharray:none;stroke-dashoffset:0;stroke-opacity:1;color-rendering:auto;image-rendering:auto;shape-rendering:auto;text-rendering:auto;enable-background:accumulate" id="path4883" d="m 933.8886,519.47358 a 24.0024,24.0024 0 0 0 -21.1582,12.29687 L 893.9121,564.3642 C 872.072,551.44746 846.0706,542.91394 817.8457,540.36225 l -35.6602,0 c -27.879,2.52042 -53.5867,10.87928 -75.2597,23.53125 l -18.5469,-32.12305 a 24.0024,24.0024 0 0 0 -21.8828,-12.27929 24.0024,24.0024 0 0 0 -19.6875,36.27929 l 22.4941,38.96094 c -18.0968,20.84445 -28.8794,46.20446 -29.2871,73.60547 l 320,0 c -0.4029,-27.07502 -10.9298,-52.16089 -28.6387,-72.86328 l 22.9219,-39.70313 A 24.0024,24.0024 0 0 0 933.8886,519.47358 Z M 640.2324,668.36225 c -0.1161,1.38444 -0.2168,2.78726 -0.2168,4.20508 l 0,23.9707 c -8.4808,-7.57528 -19.6814,-12.17578 -32,-12.17578 -26.592,0 -48,21.408 -48,48 l 0,144 c 0,26.592 21.408,48 48,48 12.3406,0 23.5606,-4.61536 32.0469,-12.21484 0.9534,24.65563 20.0437,44.21484 43.6113,44.21484 l 4.3418,0 0,64.00005 c 0,26.592 21.408,48 48,48 26.592,0 48,-21.408 48,-48 l 0,-64.00005 32,0 0,64.00005 c 0,26.592 21.408,48 48,48 26.592,0 48,-21.408 48,-48 l 0,-64.00005 4.3418,0 c 23.5679,0 42.6579,-19.55921 43.6113,-44.21484 8.4863,7.59948 19.7063,12.21484 32.0469,12.21484 26.592,0 48,-21.408 48,-48 l 0,-144 c 0,-26.592 -21.408,-48 -48,-48 -12.3186,0 -23.5192,4.6005 -32,12.17578 l 0,-23.9707 c 0,-1.41756 -0.047,-2.82088 -0.1641,-4.20508 l -319.6171,0 -0.002,0 z"/><path style="fill:#424242;stroke:none;fill-opacity:1" id="rect4839" d="M 656.1953,684.33295 C 656.0908,685.56332 656,686.8112 656,688.07123 l 0,211.19922 c 0,22.71467 17.5268,41.01172 39.2851,41.01172 l 8.7051,0 0,79.98443 c 0,17.7244 14.2697,31.9922 31.9942,31.9922 17.7244,0 31.9921,-14.2678 31.9921,-31.9922 l 0,-79.98443 63.9883,0 0,79.98443 c 0,17.7244 14.2678,31.9922 31.9922,31.9922 17.7244,0 31.9941,-14.2678 31.9941,-31.9922 l 0,-79.98443 8.7051,0 c 21.7585,0 39.2852,-18.29705 39.2852,-41.01172 l 0,-211.19922 c 0,-1.2598 -0.0417,-2.50813 -0.1465,-3.73828 l -287.5996,0 z"/><rect style="fill:#424242;stroke:none;fill-opacity:1" id="rect4845" width="63.987" height="207.958" x="576.016" y="700.33" rx="31.994"/><rect style="fill:#424242;stroke:none;fill-opacity:1" id="rect4847" width="63.897" height="207.958" x="959.938" y="700.33" rx="31.949"/><path style="fill:#424242;fill-opacity:1;stroke:none" id="path4849" d="m 933.6094,537.69623 a 6.0006,6.0006 0 0 0 -5.2911,3.07422 l -27.2656,47.22657 C 878.7016,570.76743 849.312,559.23129 816.6094,556.35834 l -32.1094,0 c -32.7031,2.87299 -62.0941,14.40872 -84.4453,31.63868 L 672.789,540.77045 a 6.0006,6.0006 0 0 0 -5.4707,-3.07031 6.0006,6.0006 0 0 0 -4.9199,9.07031 l 28.3516,49.10938 c -21.0188,19.57066 -33.8446,44.82875 -34.2676,72.45703 l 288.1445,0 c -0.423,-27.62873 -13.2501,-52.88623 -34.2695,-72.45703 l 28.3535,-49.10938 a 6.0006,6.0006 0 0 0 -5.1015,-9.07422 z"/><path style="fill:#fff;fill-opacity:1;stroke:none" id="path4855" d="m 767.977,620.17601 a 16.52781,16.143444 0 1 1 -33.0556,0 16.52781,16.143444 0 1 1 33.0556,0 z"/><path style="fill:#fff;fill-opacity:1;stroke:none" id="path4857" d="m 865.0198,620.51631 a 16.52781,16.143444 0 1 1 -33.0556,0 16.52781,16.143444 0 1 1 33.0556,0 z"/><path id="path4885" d="m 767.977,620.17601 a 16.52781,16.143444 0 1 1 -33.0556,0 16.52781,16.143444 0 1 1 33.0556,0 z" style="fill:#fff;fill-opacity:1;stroke:none"/><path id="path4887" d="m 865.0198,620.51631 a 16.52781,16.143444 0 1 1 -33.0556,0 16.52781,16.143444 0 1 1 33.0556,0 z" style="fill:#fff;fill-opacity:1;stroke:none"/></g></svg>