<svg xmlns="http://www.w3.org/2000/svg" xmlns:svg="http://www.w3.org/2000/svg" id="svg2" width="1024" height="1024" version="1.1"><title id="title4145">copy-files</title><metadata id="metadata4"/><path id="rect4758" d="m 384,320 0,544 448,0 0,-355.2168 L 643.2168,320 384,320 Z" style="fill:#fff;fill-opacity:1"/><path id="rect4756" d="m 192,160 0,544 384,0 0,-384.66602 L 416.66602,160 192,160 Z" style="fill:#fff;fill-opacity:1"/><path style="font-style:normal;font-variant:normal;font-weight:400;font-size:180px;line-height:125%;font-family:'Segoe UI Symbol';text-align:start;letter-spacing:0;word-spacing:0;text-anchor:start;fill:#000;fill-opacity:1;stroke:none" id="path4726" d="M 864,493.64299 864,896 l -518.6969,0 0,-146.48183 -185.3031,0 L 160,128 l 259.34845,0 148.0906,146.10737 74.0453,0 L 864,493.64299 Z M 456.18124,274.10737 382.1359,201.05366 l -148.47032,0 0,475.41085 111.63752,0 0,-402.35714 110.87814,0 z m 333.77346,292.58928 -222.51565,0 0,-219.16099 -148.0906,0 0,475.03617 370.60625,0 0,-255.87518 z m -37.21255,-73.05366 -111.2578,-109.76781 0,109.76781 111.2578,0 z"/></svg>