<svg xmlns="http://www.w3.org/2000/svg" xmlns:svg="http://www.w3.org/2000/svg" id="svg2" width="1024" height="1024" version="1.1"><metadata id="metadata4"/><path id="path4142" d="M 512,224 224,337.77778 512,480 800,337.77778 Z" style="fill:#3999c6;fill-opacity:1"/><path id="path4140" d="m 224,384 -1e-5,320.63868 L 480,832 480,512 Z" style="fill:#59b4d9;fill-opacity:1"/><path id="path6" d="M 800,384 544,512 544,832 800,704 Z" style="fill:#abd9ec;fill-opacity:1"/><path style="color:#000;font-style:normal;font-variant:normal;font-weight:400;font-stretch:normal;font-size:medium;line-height:normal;font-family:sans-serif;text-indent:0;text-align:start;text-decoration:none;text-decoration-line:none;text-decoration-style:solid;text-decoration-color:#000;letter-spacing:normal;word-spacing:normal;text-transform:none;direction:ltr;block-progression:tb;writing-mode:lr-tb;baseline-shift:baseline;text-anchor:start;white-space:normal;clip-rule:nonzero;display:inline;overflow:visible;visibility:visible;opacity:1;isolation:auto;mix-blend-mode:normal;color-interpolation:sRGB;color-interpolation-filters:linearRGB;solid-color:#000;solid-opacity:1;fill:#424242;fill-opacity:1;fill-rule:evenodd;stroke:none;stroke-width:34.62200165;stroke-linecap:round;stroke-linejoin:miter;stroke-miterlimit:4;stroke-dasharray:none;stroke-dashoffset:0;stroke-opacity:1;color-rendering:auto;image-rendering:auto;shape-rendering:auto;text-rendering:auto;enable-background:accumulate" id="path4159" d="m 287.72461,190.42969 c -2.72391,-0.0309 -5.41667,0.58138 -7.85938,1.78711 L 128.07617,264.48438 128,768 278.4082,857.74805 c 7.9627,5.44533 18.8401,3.33229 24.18502,-4.69814 5.34492,-8.03044 3.0955,-18.88045 -5.00142,-24.12413 l -134.96875,-79.4707 0.0762,-463.10742 132.04883,-62.8711 c 7.36264,-3.37842 11.39826,-11.41057 9.71422,-19.33434 -1.68403,-7.92377 -8.63744,-13.62043 -16.73766,-13.71253 z"/><path id="path4172" d="m 737.20889,190.42969 c 2.72391,-0.0309 5.41667,0.58138 7.85938,1.78711 L 896.85733,264.48438 896,768 746.5253,857.74805 c -7.9627,5.44533 -18.8401,3.33229 -24.18502,-4.69814 -5.34492,-8.03044 -3.0955,-18.88045 5.00142,-24.12413 l 134.03525,-79.4707 0.85733,-463.10742 -132.04883,-62.8711 c -7.36264,-3.37842 -11.39826,-11.41057 -9.71422,-19.33434 1.68403,-7.92377 8.63744,-13.62043 16.73766,-13.71253 z" style="color:#000;font-style:normal;font-variant:normal;font-weight:400;font-stretch:normal;font-size:medium;line-height:normal;font-family:sans-serif;text-indent:0;text-align:start;text-decoration:none;text-decoration-line:none;text-decoration-style:solid;text-decoration-color:#000;letter-spacing:normal;word-spacing:normal;text-transform:none;direction:ltr;block-progression:tb;writing-mode:lr-tb;baseline-shift:baseline;text-anchor:start;white-space:normal;clip-rule:nonzero;display:inline;overflow:visible;visibility:visible;opacity:1;isolation:auto;mix-blend-mode:normal;color-interpolation:sRGB;color-interpolation-filters:linearRGB;solid-color:#000;solid-opacity:1;fill:#424242;fill-opacity:1;fill-rule:evenodd;stroke:none;stroke-width:34.62200165;stroke-linecap:round;stroke-linejoin:miter;stroke-miterlimit:4;stroke-dasharray:none;stroke-dashoffset:0;stroke-opacity:1;color-rendering:auto;image-rendering:auto;shape-rendering:auto;text-rendering:auto;enable-background:accumulate"/></svg>