<svg xmlns="http://www.w3.org/2000/svg" xmlns:svg="http://www.w3.org/2000/svg" xmlns:xlink="http://www.w3.org/1999/xlink" id="svg3336" width="1024" height="1024" version="1.1"><defs id="defs3344"><radialGradient id="radialGradient3030" cx="475.277" cy="438.189" r="147.987" fx="475.277" fy="438.189" gradientTransform="matrix(1.7825145,0.14366863,-0.09816448,1.2179393,-224.85061,16.026183)" gradientUnits="userSpaceOnUse" xlink:href="#linearGradient3808"/><linearGradient id="linearGradient3808"><stop style="stop-color:#0663b4;stop-opacity:1" id="stop3810" offset="0"/><stop style="stop-color:#16adff;stop-opacity:.68468469" id="stop3812" offset="1"/></linearGradient><clipPath id="clipPath3939" clipPathUnits="userSpaceOnUse"><rect style="fill:url(#radialGradient3943);fill-opacity:1;stroke:none" id="rect3941" width="192.207" height="190.238" x="273.941" y="774.743" ry="61.519"/></clipPath><linearGradient id="linearGradient4023" x1="286.883" x2="286.883" y1="680.626" y2="623.047" gradientUnits="userSpaceOnUse" xlink:href="#linearGradient3782"/><linearGradient id="linearGradient3782"><stop style="stop-color:#047fc7;stop-opacity:1" id="stop3784" offset="0"/><stop style="stop-color:#11abe8;stop-opacity:1" id="stop3786" offset="1"/></linearGradient></defs><metadata id="metadata3338"/><g id="layer1" transform="matrix(2.4638741,0,0,2.5415332,-910.93323,-1062.3262)"><rect style="fill:#c7ebf1;fill-opacity:1;stroke:none" id="rect3796-2" width="308.097" height="308.096" x="425.274" y="462.433" ry="100.005"/><rect id="rect3798" width="295.975" height="292.944" x="431.335" y="471.524" ry="94.731" style="opacity:.82300882;fill:url(#radialGradient3030);fill-opacity:1;stroke:none"/><rect style="fill:#016fd2;fill-opacity:1;stroke:none;filter:url(#filter3917)" id="rect3887" width="222.857" height="222.857" x="481.429" y="529.505" ry="69.826" transform="matrix(1.1321839,0,0,1.1321839,-96.9376,-103.29253)"/><circle style="opacity:.17256637;fill:#5fffe6;fill-opacity:1;stroke:none" id="path3828" cx="287.388" cy="660.928" r="246.982" clip-path="url(#clipPath3939)" transform="matrix(1.5398773,0,0,1.5398773,9.5003954,-721.48516)"/><circle style="fill:#fff;fill-opacity:1;stroke:none" id="path3832" cx="502.046" cy="868.514" r="64.65" transform="translate(121.21831,-197.9899)"/><circle style="fill:#fff;fill-opacity:1;stroke:none" id="path3834" cx="382.848" cy="750.327" r="37.376" transform="translate(121.21831,-197.9899)"/><circle style="fill:#cbedf2;fill-opacity:.9254902;stroke:none" id="path3010-2" cx="282.843" cy="648.301" r="35.355" transform="translate(122.22846,-194.95944)"/><circle style="fill:url(#linearGradient4023);fill-opacity:1;stroke:none" id="path3012" cx="285.873" cy="649.311" r="27.274" transform="translate(119.19801,-195.96959)"/></g><rect style="fill:#fff;fill-opacity:1" id="rect4722" width="448" height="128" x="608" y="928"/><rect id="rect8" width="384" height="64" x="640" y="960" style="fill:#424242;fill-opacity:1"/><rect id="rect4724" width="288" height="192" x="672" y="-928" transform="matrix(0,1,-1,0,0,0)" style="fill:#fff;fill-opacity:1"/><path style="fill:#fff;fill-opacity:1" id="rect4726" d="m 832,448 -160,160 -128,128 192,0 96,-48 96,48 192,0 L 992,608 832,448 Z"/><path id="polygon6" d="m 768,896 128,0 0,-192 128,0 -192,-192 -192,192 128,0 z" style="fill:#424242;fill-opacity:1"/></svg>