<svg xmlns="http://www.w3.org/2000/svg" xmlns:svg="http://www.w3.org/2000/svg" id="svg2" width="1024" height="1024" version="1.1" viewBox="0 0 1024 1024"><metadata id="metadata7"/><g id="layer1" transform="translate(0,-28.362251)"><g id="g4140" transform="matrix(1.45,0,0,1.45,-232,-227.16301)"><path style="fill:#2570c1;fill-opacity:1;fill-rule:evenodd;stroke:none" id="path4173" d="m 819.9355,729.13851 c 25.17889,0.1366 45.53356,-20.71676 45.57594,-46.04161 l 0.69539,-415.51028 c 0.0424,-25.32404 -21.78748,-47.22437 -46.96673,-47.22437 l -615.7488,0 c -22.88966,0 -43.4913,18.417 -43.4913,43.74109 l 0,418.99356 c 0,25.32489 20.60165,44.62723 43.4913,44.6483 l 220.85849,0.20326 0,88.27586 -88.09493,0.39811 -0.0217,21.67085 -44.05829,0 0,22.06897 440.58297,0 0,-22.06897 -44.0583,0 0,-22.06896 -88.11659,0 0,-88.27586 z"/><path style="fill:none;stroke:#fff;stroke-width:47.84963608px;stroke-linecap:round;stroke-linejoin:round;stroke-miterlimit:4;stroke-dasharray:none;stroke-opacity:1" id="path4175" d="m 448.41024,308.54392 135.6702,154.22177 -207.8767,149.4816"/><path style="fill:none;stroke:#fff;stroke-width:47.55715179px;stroke-linecap:round;stroke-linejoin:round;stroke-miterlimit:4;stroke-dasharray:none;stroke-opacity:1" id="path4177" d="m 504.58816,613.03676 110.82368,0"/></g></g></svg>