<svg xmlns="http://www.w3.org/2000/svg" xmlns:svg="http://www.w3.org/2000/svg" id="svg3336" width="1024" height="1024" version="1.1"><metadata id="metadata3338"/><g id="g4712" transform="matrix(1.2364006,0,0,1.3333334,-94.259301,-170.66663)" style="fill:#69207a;fill-opacity:1"><path id="path4136" d="m 309.17083,127.99996 2.4e-4,72 51.76316,0 0,167.99999 -232.93421,431.99998 77.64474,96 569.39474,0 77.64474,-96 -232.93422,-431.99998 0,-167.99999 51.76316,0 0,-72 -362.34211,0 z" overflow="visible" style="color:#000;overflow:visible;fill:#fff;fill-opacity:1;enable-background:accumulate"/><path style="color:#000;overflow:visible;fill:#69207a;fill-opacity:1;enable-background:accumulate" id="path8" d="m 309.17083,127.99996 2.4e-4,72 51.76316,0 0,167.99999 -232.93421,431.99998 77.64474,96 569.39474,0 77.64474,-96 -232.93422,-431.99998 0,-167.99999 51.76316,0 0,-72 -362.34211,0 z m 103.52656,72 155.28948,0 0,167.99999 77.64473,143.99999 -181.17105,0 -155.28948,335.99999 -77.64473,0 -51.76316,-48 232.93421,-431.99998 z" overflow="visible"/></g></svg>