<svg xmlns="http://www.w3.org/2000/svg" xmlns:svg="http://www.w3.org/2000/svg" id="svg2" width="1024" height="1024" version="1.1" viewBox="0 0 1024 1024"><metadata id="metadata10"/><path style="fill:#fff;fill-opacity:1;stroke:none" id="rect4147" d="m 352,0 c -35.456,0 -64,28.544 -64,64 l 0,64 -128,0 c -35.456,0 -64,28.544 -64,64 l 0,64 c 0,35.456 28.544,64 64,64 l 0,640 c 0,35.456 28.544,64 64,64 l 576,0 c 35.456,0 64,-28.544 64,-64 l 0,-640 c 35.456,0 64,-28.544 64,-64 l 0,-64 c 0,-35.456 -28.544,-64 -64,-64 l -128,0 0,-64 C 736,28.544 707.456,0 672,0 L 352,0 Z"/><path id="path4" d="m 416,768 -64,0 0,-384 64,0 0,384 z m 128,-384 -64,0 0,384 64,0 0,-384 z m 128,0 -64,0 0,384 64,0 0,-384 z m 192,-192 0,64 -64,0 0,640 c 0,35.344 -28.652,64 -64,64 l -448,0 c -35.348,0 -64,-28.656 -64,-64 l 0,-640 -64,0 0,-64 192,0 0,-64 c 0,-35.348 28.652,-64 64,-64 l 192,0 c 35.348,0 64,28.652 64,64 l 0,64 192,0 z m -448,0 192,0 0,-64 -192,0 0,64 z m 320,64 -448,0 0,640 448,0 0,-640 z" style="fill:#f34235;fill-opacity:1"/></svg>