<svg xmlns="http://www.w3.org/2000/svg" xmlns:svg="http://www.w3.org/2000/svg" id="svg3336" width="1024" height="1024" version="1.1"><metadata id="metadata3338"/><path style="fill:#69207a;fill-opacity:1" id="rect3371" d="m 0,448 0,576 1024,0 0,-576 -128,0 0,288 -768,0 0,-288 z"/><rect id="rect3377" width="160" height="160" x="193" y="512" ry="0" style="fill:#69207a;fill-opacity:1"/><path style="fill:#69207a;fill-opacity:1" id="rect3391" d="M 480,0 480,256 288,96 288,192 512,384 736,192 736,96 544,256 544,0 Z"/><rect style="fill:#69207a;fill-opacity:1" id="rect4145" width="160" height="160" x="672" y="512" ry="0"/><rect id="rect4147" width="160" height="160" x="433" y="512" ry="0" style="fill:#69207a;fill-opacity:1"/><rect style="fill:#fff;fill-opacity:1" id="rect4156" width="160" height="160" x="320" y="800" ry="0"/><rect id="rect4168" width="160" height="160" x="544" y="800" ry="0" style="fill:#fff;fill-opacity:1"/></svg>